<svg xmlns="http://www.w3.org/2000/svg" xmlns:xlink="http://www.w3.org/1999/xlink" viewBox="0 0 100 125" version="1.1" xml:space="preserve" style="" x="0px" y="0px" fill-rule="evenodd" clip-rule="evenodd" stroke-linejoin="round" stroke-miterlimit="1.41421"><g transform="matrix(1,0,0,1,-549.992,-214)"><path d="M618.333,276.5C618.775,276.5 619.199,276.342 619.512,276.061C619.824,275.779 620,275.398 620,275C620,274.602 619.824,274.221 619.512,273.939C619.199,273.658 618.775,273.5 618.333,273.5C611.319,273.5 588.681,273.5 581.667,273.5C581.225,273.5 580.801,273.658 580.488,273.939C580.176,274.221 580,274.602 580,275C580,275.398 580.176,275.779 580.488,276.061C580.801,276.342 581.225,276.5 581.667,276.5C588.681,276.5 611.319,276.5 618.333,276.5ZM618.333,265.5C618.775,265.5 619.199,265.342 619.512,265.061C619.824,264.779 620,264.398 620,264C620,263.602 619.824,263.221 619.512,262.939C619.199,262.658 618.775,262.5 618.333,262.5C611.319,262.5 588.681,262.5 581.667,262.5C581.225,262.5 580.801,262.658 580.488,262.939C580.176,263.221 580,263.602 580,264C580,264.398 580.176,264.779 580.488,265.061C580.801,265.342 581.225,265.5 581.667,265.5C588.681,265.5 611.319,265.5 618.333,265.5ZM618.333,254.5C618.775,254.5 619.199,254.342 619.512,254.061C619.824,253.779 620,253.398 620,253C620,252.602 619.824,252.221 619.512,251.939C619.199,251.658 618.775,251.5 618.333,251.5C611.319,251.5 588.681,251.5 581.667,251.5C581.225,251.5 580.801,251.658 580.488,251.939C580.176,252.221 580,252.602 580,253C580,253.398 580.176,253.779 580.488,254.061C580.801,254.342 581.225,254.5 581.667,254.5C588.681,254.5 611.319,254.5 618.333,254.5Z" style="" fill="black"/></g><text x="0" y="115" fill="#000000" font-size="5px" font-weight="bold" font-family="'Helvetica Neue', Helvetica, Arial-Unicode, Arial, Sans-serif">Created by Ryo Sato</text><text x="0" y="120" fill="#000000" font-size="5px" font-weight="bold" font-family="'Helvetica Neue', Helvetica, Arial-Unicode, Arial, Sans-serif">from the Noun Project</text></svg>